<svg width="19" height="18" viewBox="0 0 19 18" fill="none" xmlns="http://www.w3.org/2000/svg">
<path d="M9.5 18C14.1636 18 18.0009 14.4491 18.4591 9.9C18.5082 9.41727 18.1236 9 17.6409 9C17.2236 9 16.8718 9.31091 16.8309 9.72C16.4709 13.4509 13.3209 16.3636 9.5 16.3636C6.94727 16.3636 4.69727 15.0627 3.38 13.0909H4.59091C5.04091 13.0909 5.40909 12.7227 5.40909 12.2727C5.40909 11.8227 5.04091 11.4545 4.59091 11.4545H1.31818C0.868182 11.4545 0.5 11.8227 0.5 12.2727V15.5455C0.5 15.9955 0.868182 16.3636 1.31818 16.3636C1.76818 16.3636 2.13636 15.9955 2.13636 15.5455V14.1791C3.76455 16.4864 6.45636 18 9.5 18ZM9.5 0C4.83636 0 0.999091 3.55091 0.540909 8.1C0.5 8.58273 0.876364 9 1.35909 9C1.77636 9 2.12818 8.68909 2.16909 8.28C2.52909 4.54909 5.67909 1.63636 9.5 1.63636C12.0527 1.63636 14.3027 2.93727 15.62 4.90909H14.4091C13.9591 4.90909 13.5909 5.27727 13.5909 5.72727C13.5909 6.17727 13.9591 6.54545 14.4091 6.54545H17.6818C18.1318 6.54545 18.5 6.17727 18.5 5.72727V2.45455C18.5 2.00455 18.1318 1.63636 17.6818 1.63636C17.2318 1.63636 16.8636 2.00455 16.8636 2.45455V3.82091C15.2355 1.51364 12.5436 0 9.5 0ZM8.78 3.99273C8.78 3.59182 9.10727 3.27273 9.5 3.27273C9.89273 3.27273 10.22 3.59182 10.22 3.99273V4.29545C11.0955 4.45091 11.6518 4.91727 11.9873 5.35909C12.2655 5.71909 12.1182 6.24273 11.6927 6.42273C11.3982 6.54545 11.0545 6.44727 10.8582 6.19364C10.6291 5.88273 10.22 5.56364 9.54909 5.56364C8.97636 5.56364 8.06818 5.86636 8.06818 6.70091C8.06818 7.47818 8.77182 7.77273 10.2282 8.25546C12.1918 8.93455 12.6909 9.93273 12.6909 11.0782C12.6909 13.2218 10.6455 13.6391 10.22 13.7127V14.0155C10.22 14.4082 9.90091 14.7355 9.5 14.7355C9.09909 14.7355 8.78 14.4164 8.78 14.0155V13.6718C8.26455 13.5491 7.20091 13.1727 6.57909 11.9536C6.39091 11.5936 6.60364 11.1191 6.98 10.9718C7.31545 10.8409 7.71636 10.9636 7.88818 11.2827C8.15 11.7818 8.66545 12.4036 9.62273 12.4036C10.3836 12.4036 11.2427 12.0109 11.2427 11.0864C11.2427 10.3009 10.67 9.89182 9.37727 9.42546C8.47727 9.10636 6.63636 8.58273 6.63636 6.71727C6.63636 6.63545 6.64455 4.75364 8.78 4.29545V3.99273Z" fill="#8991A4"/>
</svg>
