<svg width="27" height="18" viewBox="0 0 27 18" fill="none" xmlns="http://www.w3.org/2000/svg">
<path d="M5.11488 8.79267L1.13991 12.7819C0.86824 13.0679 0.86824 13.5112 1.13991 13.7971L5.11488 17.7864C5.55813 18.2439 6.33024 17.9151 6.33024 17.2859V14.7122H14.9236C15.71 14.7122 16.3534 14.0688 16.3534 13.2824C16.3534 12.496 15.71 11.8525 14.9236 11.8525H6.33024V9.29312C6.33024 8.64969 5.55813 8.33512 5.11488 8.79267ZM25.8619 4.20287L21.8869 0.213611C21.4437 -0.243939 20.6716 0.0849249 20.6716 0.714056V3.27348H12.0639C11.2775 3.27348 10.6341 3.91691 10.6341 4.70332C10.6341 5.48973 11.2775 6.13316 12.0639 6.13316H20.6573V8.69258C20.6573 9.33601 21.4294 9.65058 21.8726 9.19303L25.8476 5.20377C26.1336 4.9321 26.1336 4.47454 25.8619 4.20287Z" fill="#8991A4"/>
</svg>
