<svg width="20" height="20" viewBox="0 0 20 20" fill="none" xmlns="http://www.w3.org/2000/svg">
<circle cx="10" cy="10" r="10" fill="#161A26"/>
<path d="M8.01891 13.1015L5.26529 9.77688L7.25297 10.7051L8.01891 13.1015Z" fill="white"/>
<path d="M9.99995 15.4929L9.50574 14.8958L8.2014 10.8263H11.7927L10.4884 14.8958L9.99995 15.4929Z" fill="white"/>
<path d="M14.7354 9.77688L11.9818 13.1015L12.7484 10.7051L14.7354 9.77688Z" fill="white"/>
<path d="M11.8992 5.30447L13.8934 6.19867L9.99989 6.77838L6.10642 6.19867L8.10062 5.30447H11.8992Z" fill="white"/>
<path d="M12.3108 9.56538L13.4877 7.1422L10.7877 7.54365L12.3108 9.56538Z" fill="white"/>
<path d="M13.3174 9.479L15.545 8.43987L14.3696 7.31378L13.3174 9.479Z" fill="white"/>
<path d="M8.47826 9.95664L10 7.93997L11.5217 9.95664H8.47826Z" fill="white"/>
<path d="M6.51229 7.13842L7.68911 9.56523L9.21084 7.54349L6.51229 7.13842Z" fill="white"/>
<path d="M5.63054 7.31378L4.45518 8.43987L6.68271 9.479L5.63054 7.31378Z" fill="white"/>
<path fill-rule="evenodd" clip-rule="evenodd" d="M10 20C11.9778 20 13.9112 19.4135 15.5557 18.3147C17.2002 17.2159 18.4819 15.6541 19.2388 13.8268C19.9957 11.9996 20.1937 9.98891 19.8078 8.0491C19.422 6.10929 18.4696 4.32746 17.0711 2.92894C15.6725 1.53041 13.8907 0.578004 11.9509 0.192152C10.0111 -0.1937 8.00042 0.00433262 6.17316 0.761209C4.3459 1.51809 2.78412 2.79981 1.6853 4.4443C0.586489 6.08879 0 8.02219 0 10C0 12.6522 1.05357 15.1957 2.92893 17.0711C4.8043 18.9464 7.34783 20 10 20ZM7.82971 4.47319C7.88575 4.44793 7.9465 4.43484 8.00797 4.43479H11.9935C12.0549 4.43484 12.1157 4.44793 12.1717 4.47319L14.8855 5.69058C14.9624 5.7247 15.0277 5.78063 15.0732 5.85145L16.6667 8.33334C16.7168 8.41099 16.7408 8.50258 16.7354 8.59484C16.7299 8.68709 16.6952 8.7752 16.6362 8.84638L10.3319 16.4551C10.2911 16.5043 10.2399 16.5439 10.1821 16.5711C10.1242 16.5983 10.061 16.6124 9.9971 16.6124C9.93316 16.6124 9.87 16.5983 9.81214 16.5711C9.75427 16.5439 9.70311 16.5043 9.66232 16.4551L3.35797 8.84638C3.30078 8.77539 3.26736 8.68822 3.26242 8.5972C3.25747 8.50617 3.28127 8.4159 3.33043 8.33913L4.92754 5.85145C4.97302 5.78063 5.03827 5.7247 5.11522 5.69058L7.82971 4.47319Z" fill="white"/>
</svg>
